<svg width="26" height="26" viewBox="0 0 26 26" fill="none" xmlns="http://www.w3.org/2000/svg">
<path d="M18.7545 3.44001C18.7545 5.93347 14.1742 8.79077 14.1742 8.79077C14.1742 8.79077 9.59397 5.95487 9.59397 3.44001C9.58663 2.89118 9.76703 2.35632 10.1053 1.92405C10.4435 1.49177 10.9193 1.18803 11.4538 1.06315C11.9883 0.938271 12.5494 0.99975 13.0441 1.2374C13.5389 1.47505 13.9376 1.8746 14.1742 2.36986C14.4108 1.8746 14.8096 1.47505 15.3043 1.2374C15.7991 0.99975 16.3602 0.938271 16.8947 1.06315C17.4291 1.18803 17.9049 1.49177 18.2432 1.92405C18.5814 2.35632 18.7618 2.89118 18.7545 3.44001Z" stroke="#456EFE" stroke-width="1.5" stroke-linecap="round" stroke-linejoin="round"/>
<path d="M3.8573 9.52905H2.90487C1.56718 9.52905 1 10.0106 1 11.3376V22.6812C1 24.0189 1.56718 24.5005 2.90487 24.5005H3.8573C5.195 24.5005 5.76217 24.0189 5.76217 22.6812V11.3376C5.79428 10.0106 5.195 9.52905 3.8573 9.52905Z" stroke="#456EFE" stroke-width="1.5" stroke-linecap="round" stroke-linejoin="round"/>
<path d="M6.05176 22.1033L14.2384 22.2425C15.2583 22.2541 16.2488 21.9011 17.0315 21.2472L23.6023 16.1319C24.0818 15.7654 24.407 15.2328 24.5139 14.6388C24.6209 14.0447 24.5018 13.4322 24.1801 12.9214C23.8798 12.4303 23.4141 12.0625 22.8668 11.884C22.3196 11.7055 21.7265 11.728 21.1944 11.9476L16.1005 14.0237" stroke="#456EFE" stroke-width="1.5" stroke-linecap="round" stroke-linejoin="round"/>
<path d="M11.4881 17.3411L14.613 16.485C15.078 16.3688 15.4851 16.0878 15.7586 15.6942C16.0322 15.3006 16.1537 14.8211 16.1005 14.3447C16.0527 13.932 15.8776 13.5443 15.5996 13.2356C15.3215 12.9268 14.9543 12.7123 14.5488 12.6217L6.05176 12.4398" stroke="#456EFE" stroke-width="1.5" stroke-linecap="round" stroke-linejoin="round"/>
</svg>
