<svg width="39" height="30" viewBox="0 0 39 30" fill="none" xmlns="http://www.w3.org/2000/svg">
<path d="M38.9375 5.45634C38.9396 7.2452 38.9428 9.03407 38.9449 10.8229C35.1833 10.824 31.4217 10.825 27.6601 10.8271C26.7836 10.8271 26.1866 11.4185 26.1866 12.3034C26.1856 18.0977 26.1877 23.892 26.1887 29.6862C26.0195 29.6915 25.8493 29.7021 25.68 29.7021C21.5601 29.7031 17.4412 29.7031 13.3212 29.7021C13.152 29.7021 12.9817 29.6915 12.8125 29.6862C12.8125 19.801 12.8125 9.91582 12.8125 0.0295714C12.9817 0.0242914 13.152 0.0137315 13.3212 0.0137315C17.4412 0.0126755 21.5601 0.0126755 25.68 0.0137315C25.8493 0.0137315 26.0195 0.0242914 26.1887 0.0295714C26.1877 1.25347 26.1866 2.47843 26.1856 3.70233C26.1856 4.9199 26.7163 5.45318 27.9313 5.45318C31.5993 5.45423 35.2684 5.45529 38.9375 5.45634Z" fill="#F8C74E"/>
<path d="M12.8113 0.0285489C12.8113 9.91374 12.8113 19.7989 12.8113 29.6852C12.3677 29.7274 11.9242 29.7148 11.4807 29.6926C11.4796 28.5204 11.4618 27.3483 11.487 26.1772C11.4954 25.7812 11.3966 25.6692 10.9899 25.6713C7.35966 25.6872 3.72947 25.6787 0.100324 25.6777C0.0204476 25.2056 -0.0552253 24.7336 0.062488 24.2552C3.74523 24.2574 7.42798 24.2552 11.1107 24.2669C11.4124 24.2679 11.4849 24.1687 11.4828 23.8804C11.4702 22.3397 11.4702 20.799 11.4828 19.2583C11.4849 18.9605 11.3934 18.8792 11.1023 18.8802C7.41957 18.8908 3.73683 18.8887 0.0540799 18.8908C-0.0110828 18.4399 -0.025797 17.99 0.057233 17.5391C3.73998 17.5402 7.42272 17.538 11.1055 17.5486C11.4019 17.5497 11.4838 17.4599 11.4817 17.1674C11.4691 15.6267 11.4691 14.086 11.4817 12.5453C11.4838 12.2517 11.4008 12.163 11.1055 12.1641C7.42272 12.1746 3.73998 12.1725 0.057233 12.1736C0.0130905 11.7237 0.0162435 11.2728 0.0540799 10.8219C3.73683 10.823 7.41957 10.8219 11.1023 10.8325C11.3934 10.8335 11.4849 10.7522 11.4828 10.4544C11.4691 8.91371 11.4702 7.37301 11.4828 5.83231C11.4849 5.54508 11.4113 5.44582 11.1107 5.44582C7.42798 5.45743 3.74523 5.45532 0.062488 5.45743C-0.0552253 4.98012 0.0204476 4.50809 0.0992735 4.035C3.74208 4.03395 7.38594 4.02761 11.0287 4.04028C11.3966 4.04134 11.4912 3.93468 11.4849 3.57565C11.4649 2.39082 11.4786 1.20599 11.4807 0.0211569C11.9242 -0.00101904 12.3677 -0.014747 12.8113 0.0285489Z" fill="#E9AA42"/>
<path d="M26.1889 29.6836C26.1879 23.8893 26.1858 18.0951 26.1868 12.3008C26.1868 11.417 26.7838 10.8256 27.6603 10.8245C31.4219 10.8235 35.1835 10.8224 38.945 10.8203C38.9818 11.2702 38.986 11.7211 38.9419 12.1709C35.2591 12.1699 31.5764 12.172 27.8937 12.1614C27.5973 12.1604 27.5153 12.2501 27.5174 12.5437C27.53 14.0844 27.53 15.6251 27.5174 17.1658C27.5153 17.4594 27.5983 17.5481 27.8937 17.547C31.5764 17.5365 35.2591 17.5386 38.9419 17.5375C39.0218 17.9874 39.0165 18.4383 38.945 18.8892C35.2623 18.8881 31.5796 18.8892 27.8968 18.8786C27.6057 18.8776 27.5142 18.9589 27.5163 19.2567C27.53 20.7974 27.529 22.3381 27.5163 23.8788C27.5142 24.166 27.5878 24.2653 27.8884 24.2653C31.5711 24.2537 35.2539 24.2558 38.9366 24.2537C39.0554 24.731 38.9776 25.203 38.8988 25.6761C35.256 25.6771 31.6132 25.6835 27.9704 25.6708C27.6025 25.6698 27.509 25.7775 27.5142 26.1355C27.5342 27.3203 27.5205 28.5051 27.5184 29.6899C27.076 29.7132 26.6324 29.7269 26.1889 29.6836Z" fill="#E9AA42"/>
<path d="M0.0630956 5.45694C3.74584 5.45482 7.42859 5.45694 11.1113 5.44532C11.413 5.44426 11.4865 5.54353 11.4834 5.83182C11.4708 7.37252 11.4708 8.91322 11.4834 10.4539C11.4855 10.7517 11.3951 10.833 11.1029 10.832C7.42018 10.8214 3.73743 10.8235 0.0546875 10.8214C0.0588915 9.0336 0.0609936 7.24474 0.0630956 5.45694Z" fill="#F8C74E"/>
<path d="M0.0585938 12.1736C3.74134 12.1725 7.42409 12.1746 11.1068 12.1641C11.4032 12.163 11.4862 12.2528 11.4831 12.5453C11.4705 14.086 11.4705 15.6267 11.4831 17.1674C11.4852 17.4599 11.4032 17.5497 11.1068 17.5486C7.42409 17.538 3.74134 17.5402 0.0585938 17.5391C0.0585937 15.7513 0.0585938 13.9624 0.0585938 12.1736Z" fill="#F8C74E"/>
<path d="M38.9412 17.5401C35.2584 17.5412 31.5757 17.5391 27.893 17.5497C27.5966 17.5507 27.5135 17.4609 27.5167 17.1684C27.5293 15.6277 27.5293 14.087 27.5167 12.5463C27.5146 12.2538 27.5966 12.1641 27.893 12.1641C31.5757 12.1746 35.2584 12.1725 38.9412 12.1736C38.9412 13.9624 38.9412 15.7513 38.9412 17.5401Z" fill="#F8C74E"/>
<path d="M0.0546875 18.8906C3.73743 18.8895 7.42018 18.8906 11.1029 18.88C11.3941 18.879 11.4855 18.9603 11.4834 19.2581C11.4697 20.7988 11.4708 22.3395 11.4834 23.8802C11.4855 24.1674 11.4119 24.2677 11.1113 24.2667C7.42859 24.255 3.74584 24.2572 0.0630956 24.255C0.0599426 22.4672 0.0578405 20.6784 0.0546875 18.8906Z" fill="#F8C74E"/>
<path d="M38.937 24.255C35.2542 24.2572 31.5715 24.255 27.8888 24.2667C27.5871 24.2677 27.5135 24.1685 27.5167 23.8802C27.5293 22.3395 27.5293 20.7988 27.5167 19.2581C27.5146 18.9603 27.605 18.879 27.8972 18.88C31.5799 18.8906 35.2627 18.8885 38.9454 18.8906C38.9412 20.6784 38.9391 22.4672 38.937 24.255Z" fill="#F8C74E"/>
<path d="M27.5192 0.0210038C29.8094 0.0188918 32.0995 -0.0138441 34.3886 0.0231158C36.6767 0.0600757 38.5401 1.75284 38.8975 4.03485C35.2547 4.03379 31.6118 4.02746 27.969 4.04119C27.6012 4.04224 27.5076 3.93453 27.5129 3.57655C27.535 2.39066 27.5203 1.20583 27.5192 0.0210038Z" fill="#F8C74F"/>
<path d="M27.5191 29.691C27.5202 28.5062 27.5349 27.3214 27.5149 26.1365C27.5086 25.7786 27.6022 25.6698 27.9711 25.6719C31.6139 25.6846 35.2567 25.6782 38.8995 25.6772C38.5369 27.9645 36.684 29.6498 34.3896 29.69C32.1005 29.728 29.8093 29.6931 27.5191 29.691Z" fill="#F8C74F"/>
<path d="M11.481 0.0210003C11.48 1.20583 11.4653 2.39172 11.4852 3.57549C11.4915 3.93453 11.3969 4.04118 11.0291 4.04013C7.38628 4.02746 3.74347 4.03485 0.0996094 4.0359C0.460107 1.75284 2.3246 0.0600723 4.61055 0.0231123C6.89966 -0.0149036 9.19086 0.0178323 11.481 0.0210003Z" fill="#F8C74F"/>
<path d="M0.0996094 25.6765C3.7298 25.6776 7.36 25.686 10.9891 25.6702C11.3948 25.6681 11.4947 25.78 11.4863 26.176C11.461 27.3471 11.4789 28.5193 11.48 29.6914C9.18981 29.6935 6.89966 29.7284 4.6095 29.6893C2.3204 29.6503 0.456953 27.9564 0.0996094 25.6765Z" fill="#F8C74F"/>
<path d="M27.5184 0.0210664C27.5194 1.2059 27.5341 2.39073 27.5131 3.57556C27.5068 3.93354 27.6004 4.04231 27.9693 4.04019C31.6121 4.02752 35.2549 4.03386 38.8977 4.03386C38.9776 4.50589 39.0543 4.97792 38.9355 5.45523C35.2664 5.45417 31.5984 5.45312 27.9293 5.45101C26.7154 5.45101 26.1836 4.91773 26.1836 3.70016C26.1836 2.47626 26.1857 1.2513 26.1867 0.0274024C26.6313 -0.0148375 27.0749 -0.00110956 27.5184 0.0210664Z" fill="#EAAB42"/>
</svg>
