<svg width="20" height="25" viewBox="0 0 20 25" fill="none" xmlns="http://www.w3.org/2000/svg">
<path d="M13.6355 8.22314H5.85547" stroke="#8E949A" stroke-width="1.5" stroke-linecap="round" stroke-linejoin="round"/>
<path d="M7.34375 8.22314V12.3831C7.34375 14.4731 7.55376 14.8531 9.79376 14.8331C12.0338 14.8131 12.2538 14.4431 12.2538 12.3531V8.22314" stroke="#8E949A" stroke-width="1.5" stroke-linecap="round" stroke-linejoin="round"/>
<path d="M9.08486 23.2731C9.2756 23.4239 9.51166 23.506 9.75485 23.506C9.99804 23.506 10.2341 23.4239 10.4249 23.2731C12.5249 21.6831 18.6848 16.4831 18.6548 10.4131C18.6949 9.21853 18.4942 8.02814 18.0647 6.91278C17.6352 5.79742 16.9857 4.77986 16.1548 3.92068C15.324 3.06151 14.3287 2.3783 13.2284 1.91168C12.128 1.44507 10.945 1.20459 9.74984 1.20459C8.55464 1.20459 7.37168 1.44507 6.27133 1.91168C5.17098 2.3783 4.17573 3.06151 3.34487 3.92068C2.51402 4.77986 1.86452 5.79742 1.43502 6.91278C1.00553 8.02814 0.804809 9.21853 0.844844 10.4131C0.844844 16.4131 7.00486 21.6831 9.08486 23.2831" stroke="#8E949A" stroke-width="1.5" stroke-linecap="round" stroke-linejoin="round"/>
</svg>
