<svg width="26" height="27" viewBox="0 0 26 27" fill="none" xmlns="http://www.w3.org/2000/svg">
<path d="M6.03086 11.6459H8.10743C10.184 11.6459 11.2223 10.5691 11.2223 8.41567V6.2622C11.2223 4.10872 10.184 3.03198 8.10743 3.03198H6.03086C3.9543 3.03198 2.91602 4.10872 2.91602 6.2622V8.41567C2.91602 10.5691 3.9543 11.6459 6.03086 11.6459Z" stroke="#8E949A" stroke-width="1.5" stroke-miterlimit="10" stroke-linecap="round" stroke-linejoin="round"/>
<path d="M18.4898 11.6459H20.5664C22.643 11.6459 23.6813 10.5691 23.6813 8.41567V6.2622C23.6813 4.10872 22.643 3.03198 20.5664 3.03198H18.4898C16.4133 3.03198 15.375 4.10872 15.375 6.2622V8.41567C15.375 10.5691 16.4133 11.6459 18.4898 11.6459Z" stroke="#8E949A" stroke-width="1.5" stroke-miterlimit="10" stroke-linecap="round" stroke-linejoin="round"/>
<path d="M18.4898 24.5668H20.5664C22.643 24.5668 23.6813 23.49 23.6813 21.3366V19.1831C23.6813 17.0296 22.643 15.9529 20.5664 15.9529H18.4898C16.4133 15.9529 15.375 17.0296 15.375 19.1831V21.3366C15.375 23.49 16.4133 24.5668 18.4898 24.5668Z" stroke="#8E949A" stroke-width="1.5" stroke-miterlimit="10" stroke-linecap="round" stroke-linejoin="round"/>
<path d="M6.03086 24.5668H8.10743C10.184 24.5668 11.2223 23.49 11.2223 21.3366V19.1831C11.2223 17.0296 10.184 15.9529 8.10743 15.9529H6.03086C3.9543 15.9529 2.91602 17.0296 2.91602 19.1831V21.3366C2.91602 23.49 3.9543 24.5668 6.03086 24.5668Z" stroke="#8E949A" stroke-width="1.5" stroke-miterlimit="10" stroke-linecap="round" stroke-linejoin="round"/>
</svg>
