<svg width="26" height="26" viewBox="0 0 26 26" fill="none" xmlns="http://www.w3.org/2000/svg">
<path d="M12.7059 12.9599C12.1271 12.9599 11.572 12.73 11.1627 12.3207C10.7534 11.9114 10.5234 11.3563 10.5234 10.7775C10.5234 10.1986 10.7534 9.6435 11.1627 9.23421C11.572 8.82491 12.1271 8.59497 12.7059 8.59497H15.2158" stroke="#456EFE" stroke-width="1.5" stroke-linecap="round" stroke-linejoin="round"/>
<path d="M12.7067 12.96H13.7979C14.3768 12.96 14.9319 13.1899 15.3412 13.5992C15.7505 14.0085 15.9804 14.5636 15.9804 15.1424C15.9804 15.7213 15.7505 16.2764 15.3412 16.6857C14.9319 17.095 14.3768 17.3249 13.7979 17.3249H11.2881" stroke="#456EFE" stroke-width="1.5" stroke-linecap="round" stroke-linejoin="round"/>
<path d="M13.2305 7.24182V8.63861" stroke="#456EFE" stroke-width="1.5" stroke-linecap="round" stroke-linejoin="round"/>
<path d="M13.2305 17.2812V18.678" stroke="#456EFE" stroke-width="1.5" stroke-linecap="round" stroke-linejoin="round"/>
<path d="M19.9414 12.96H20.8362" stroke="#456EFE" stroke-width="1.5" stroke-linecap="round" stroke-linejoin="round"/>
<path d="M5.63477 12.96H6.52957" stroke="#456EFE" stroke-width="1.5" stroke-linecap="round" stroke-linejoin="round"/>
<path d="M13.2295 24.92C19.8348 24.92 25.1895 19.5653 25.1895 12.96C25.1895 6.35467 19.8348 1 13.2295 1C6.6242 1 1.26953 6.35467 1.26953 12.96C1.26953 19.5653 6.6242 24.92 13.2295 24.92Z" stroke="#456EFE" stroke-width="1.5" stroke-linecap="round" stroke-linejoin="round"/>
<path d="M12.7059 12.9599C12.1271 12.9599 11.572 12.73 11.1627 12.3207C10.7534 11.9114 10.5234 11.3563 10.5234 10.7775C10.5234 10.1986 10.7534 9.6435 11.1627 9.23421C11.572 8.82491 12.1271 8.59497 12.7059 8.59497H15.2158" stroke="#456EFE" stroke-width="1.5" stroke-linecap="round" stroke-linejoin="round"/>
<path d="M12.7067 12.96H13.7979C14.3768 12.96 14.9319 13.1899 15.3412 13.5992C15.7505 14.0085 15.9804 14.5636 15.9804 15.1424C15.9804 15.7213 15.7505 16.2764 15.3412 16.6857C14.9319 17.095 14.3768 17.3249 13.7979 17.3249H11.2881" stroke="#456EFE" stroke-width="1.5" stroke-linecap="round" stroke-linejoin="round"/>
<path d="M13.2305 7.24182V8.63861" stroke="#456EFE" stroke-width="1.5" stroke-linecap="round" stroke-linejoin="round"/>
<path d="M13.2305 17.2812V18.678" stroke="#456EFE" stroke-width="1.5" stroke-linecap="round" stroke-linejoin="round"/>
<path d="M19.9414 12.96H20.8362" stroke="#456EFE" stroke-width="1.5" stroke-linecap="round" stroke-linejoin="round"/>
<path d="M5.63477 12.96H6.52957" stroke="#456EFE" stroke-width="1.5" stroke-linecap="round" stroke-linejoin="round"/>
<path d="M13.2295 24.92C19.8348 24.92 25.1895 19.5653 25.1895 12.96C25.1895 6.35467 19.8348 1 13.2295 1C6.6242 1 1.26953 6.35467 1.26953 12.96C1.26953 19.5653 6.6242 24.92 13.2295 24.92Z" stroke="#456EFE" stroke-width="1.5" stroke-linecap="round" stroke-linejoin="round"/>
</svg>
