<svg width="22" height="24" viewBox="0 0 22 24" fill="none" xmlns="http://www.w3.org/2000/svg">
<path d="M13.1204 20.0344C13.1177 20.7594 12.8279 21.4537 12.3143 21.9654C11.8008 22.4771 11.1054 22.7644 10.3804 22.7644C9.6573 22.7599 8.96464 22.4728 8.45039 21.9644C7.93929 21.452 7.6517 20.7582 7.65039 20.0344" stroke="#010101" stroke-width="1.5" stroke-linecap="round" stroke-linejoin="round"/>
<path d="M7.94141 3.20441C7.94141 2.55728 8.19848 1.93665 8.65607 1.47906C9.11366 1.02148 9.73428 0.764404 10.3814 0.764404C11.0285 0.764404 11.6492 1.02148 12.1067 1.47906C12.5643 1.93665 12.8214 2.55728 12.8214 3.20441" stroke="#010101" stroke-width="1.5" stroke-linecap="round" stroke-linejoin="round"/>
<path d="M15.0805 4.73441C13.7463 3.68152 12.0786 3.1422 10.3805 3.21442C9.41423 3.17816 8.45052 3.33692 7.5469 3.68122C6.64328 4.02553 5.81828 4.54832 5.12112 5.21842C4.42395 5.88852 3.86891 6.69219 3.48912 7.58147C3.10932 8.47076 2.91255 9.42743 2.91054 10.3944V10.4844C2.92264 12.1449 2.51686 13.7818 1.73054 15.2444C1.50512 15.6955 1.39702 16.1961 1.41624 16.7C1.43547 17.2038 1.5814 17.6948 1.84054 18.1273C2.09968 18.5599 2.46368 18.9202 2.89889 19.1748C3.3341 19.4295 3.82649 19.5704 4.33054 19.5844H16.4205C16.9222 19.5713 17.4126 19.4326 17.8467 19.1809C18.2809 18.9292 18.645 18.5726 18.9057 18.1438C19.1664 17.7149 19.3153 17.2276 19.3389 16.7263C19.3624 16.225 19.2599 15.7258 19.0405 15.2744C18.2542 13.8118 17.8484 12.1749 17.8605 10.5144" stroke="#010101" stroke-width="1.5" stroke-linecap="round" stroke-linejoin="round"/>
<path d="M17.332 10.3545C18.9889 10.3545 20.332 9.01135 20.332 7.35449C20.332 5.69764 18.9889 4.35449 17.332 4.35449C15.6752 4.35449 14.332 5.69764 14.332 7.35449C14.332 9.01135 15.6752 10.3545 17.332 10.3545Z" stroke="#010101" stroke-width="1.5" stroke-linecap="round" stroke-linejoin="round"/>
</svg>
