<svg width="23" height="28" viewBox="0 0 23 28" fill="none" xmlns="http://www.w3.org/2000/svg">
<path d="M1.12988 22.413H21.7844" stroke="#456EFE" stroke-width="1.5" stroke-linecap="round" stroke-linejoin="round"/>
<path d="M7.51001 27.029H15.4759C21.0627 27.029 21.9741 25.9756 21.9741 20.4361V7.49897C21.9741 3.01298 21.0508 0.953452 15.4641 1.0008H7.51001C1.59182 1.0008 1 3.10767 1 7.59366V20.5308C1.01184 26.0703 1.55631 27.0764 7.51001 27.029Z" stroke="#456EFE" stroke-width="1.5" stroke-linecap="round" stroke-linejoin="round"/>
<path d="M8.61024 14.2812C8.71918 14.7061 8.9647 15.0833 9.30903 15.3549C9.65336 15.6265 10.0774 15.7775 10.5159 15.7845H12.7411C13.2027 15.766 13.6385 15.5671 13.955 15.2307C14.2715 14.8943 14.4434 14.4471 14.4337 13.9853C14.4851 13.6033 14.3923 13.2159 14.1734 12.8986C13.9546 12.5813 13.6254 12.3568 13.2501 12.2691L9.69919 11.0144C9.32482 10.9292 8.99582 10.7071 8.77682 10.3917C8.55782 10.0764 8.46463 9.69052 8.51555 9.30997C8.50925 9.07834 8.54866 8.84775 8.63151 8.63136C8.71437 8.41497 8.83905 8.21703 8.99844 8.04885C9.15782 7.88067 9.34879 7.74555 9.56042 7.6512C9.77205 7.55685 10.0002 7.50514 10.2318 7.499H12.4571C12.9072 7.49232 13.3466 7.63679 13.705 7.90931C14.0633 8.18183 14.3199 8.56664 14.4337 9.00222" stroke="#456EFE" stroke-width="1.5" stroke-linecap="round" stroke-linejoin="round"/>
<path d="M11.499 6.31543V16.9682" stroke="#456EFE" stroke-width="1.5" stroke-linecap="round" stroke-linejoin="round"/>
</svg>
