<svg width="24" height="25" viewBox="0 0 24 25" fill="none" xmlns="http://www.w3.org/2000/svg">
<path d="M15.1398 1.72021H8.53984C4.28725 1.72021 0.839844 5.16762 0.839844 9.42021V16.0202C0.839844 20.2728 4.28725 23.7202 8.53984 23.7202H15.1398C19.3924 23.7202 22.8398 20.2728 22.8398 16.0202V9.42021C22.8398 5.16762 19.3924 1.72021 15.1398 1.72021Z" stroke="#8E949A" stroke-width="1.5" stroke-linecap="round" stroke-linejoin="round"/>
<path d="M4.64062 12.7202H19.0406" stroke="#8E949A" stroke-width="1.5" stroke-linecap="round" stroke-linejoin="round"/>
<path d="M19.0412 9.32007C18.9112 6.81007 17.7912 5.69007 15.2812 5.57007" stroke="#8E949A" stroke-width="1.5" stroke-linecap="round" stroke-linejoin="round"/>
<path d="M4.64062 9.32007C4.77062 6.81007 5.89062 5.69007 8.40062 5.57007" stroke="#8E949A" stroke-width="1.5" stroke-linecap="round" stroke-linejoin="round"/>
<path d="M4.64062 16.1702C4.77062 18.6802 5.89062 19.8002 8.40062 19.9302" stroke="#8E949A" stroke-width="1.5" stroke-linecap="round" stroke-linejoin="round"/>
<path d="M19.0412 16.1702C18.9112 18.6802 17.7912 19.8002 15.2812 19.9302" stroke="#8E949A" stroke-width="1.5" stroke-linecap="round" stroke-linejoin="round"/>
</svg>
