<svg width="24" height="25" viewBox="0 0 24 25" fill="none" xmlns="http://www.w3.org/2000/svg">
<path d="M21.308 23.7103V11.8303C21.308 10.6803 20.838 10.2703 19.748 10.2703H18.978C17.888 10.2703 17.418 10.6803 17.418 11.8303V23.7103" stroke="#8E949A" stroke-width="1.5" stroke-linecap="round" stroke-linejoin="round"/>
<path d="M13.7884 23.7103V15.0803C13.7884 13.9303 13.3184 13.5203 12.2284 13.5203H11.4484C10.3584 13.5203 9.89844 13.9303 9.89844 15.0803V23.7103" stroke="#8E949A" stroke-width="1.5" stroke-linecap="round" stroke-linejoin="round"/>
<path d="M6.22984 23.7103V18.3503C6.22984 17.2003 5.75985 16.7903 4.66985 16.7903H3.88985C2.79985 16.7903 2.33984 17.2003 2.33984 18.3503V23.7303" stroke="#8E949A" stroke-width="1.5" stroke-linecap="round" stroke-linejoin="round"/>
<path d="M0.839844 23.7102H22.8398" stroke="#8E949A" stroke-width="1.5" stroke-linecap="round" stroke-linejoin="round"/>
<path d="M2.32812 8.53023L20.4081 3.98022" stroke="#8E949A" stroke-width="1.5" stroke-linecap="round" stroke-linejoin="round"/>
<path d="M19.3097 7.35022L20.7297 4.77022C20.8834 4.49171 20.9202 4.16357 20.8321 3.85793C20.744 3.55228 20.5381 3.29413 20.2597 3.14021L17.6797 1.72021" stroke="#8E949A" stroke-width="1.5" stroke-linecap="round" stroke-linejoin="round"/>
</svg>
